<?xml version="1.0" standalone="no"?>
<!DOCTYPE svg PUBLIC "-//W3C//DTD SVG 20010904//EN"
 "http://www.w3.org/TR/2001/REC-SVG-20010904/DTD/svg10.dtd">
<svg version="1.0" xmlns="http://www.w3.org/2000/svg"
 width="300.000000pt" height="300.000000pt" viewBox="0 0 300.000000 300.000000"
 preserveAspectRatio="xMidYMid meet">
<metadata>
Created by potrace 1.10, written by Peter Selinger 2001-2011
</metadata>
<g transform="translate(0.000000,300.000000) scale(0.050000,-0.050000)"
fill="#345995" stroke="none">
<path d="M4110 5941 c-323 -85 -445 -368 -351 -811 25 -118 38 -151 184 -460
29 -61 84 -122 135 -149 51 -27 414 -10 433 21 6 10 25 18 42 18 34 0 119 35
284 117 594 295 520 1012 -98 951 l-136 -13 -29 68 c-81 194 -282 306 -464
258z m273 -197 c125 -127 118 -224 -8 -124 -28 22 -65 40 -82 40 -17 0 -37 10
-44 22 -13 21 -78 17 -222 -13 -94 -20 -108 26 -27 94 123 102 271 95 383 -19z
m585 -249 c200 -114 203 -421 5 -587 -98 -83 -124 -49 -53 67 83 136 53 307
-80 451 -104 113 -24 156 128 69z"/>
<path d="M2640 5460 c-343 -44 -701 -161 -959 -313 -297 -175 -821 -615 -821
-688 0 -9 -11 -28 -25 -43 -113 -117 -376 -607 -422 -786 -6 -22 -25 -89 -44
-150 -160 -525 -102 -1283 138 -1804 29 -62 53 -119 53 -125 0 -30 227 -370
294 -441 304 -322 519 -309 696 42 67 132 89 437 35 491 -14 14 -25 36 -25 50
0 14 -40 107 -89 207 -78 160 -187 456 -272 740 -14 50 -61 171 -104 270 -192
449 69 449 295 1 53 -105 108 -201 123 -214 15 -12 27 -31 27 -42 0 -43 161
-178 247 -207 229 -78 482 189 647 682 65 195 106 341 106 380 0 21 8 65 18
99 10 33 29 106 41 161 94 422 219 647 293 526 24 -38 12 -217 -21 -326 -17
-55 -31 -136 -31 -180 -1 -44 -9 -116 -19 -160 -10 -44 -24 -183 -31 -310 -8
-126 -17 -235 -21 -242 -18 -28 37 -160 74 -180 65 -35 129 13 255 189 131
183 335 490 355 533 70 151 329 460 385 460 87 0 70 -122 -41 -299 -32 -50
-63 -107 -70 -126 -6 -19 -19 -35 -27 -35 -8 0 -21 -16 -27 -35 -11 -33 -20
-49 -95 -165 -18 -27 -60 -99 -92 -160 -33 -60 -93 -169 -132 -241 -158 -288
-87 -484 126 -349 44 28 88 50 100 50 11 0 20 7 20 16 0 8 29 32 65 53 69 40
346 269 466 385 52 51 261 166 301 166 119 0 44 -107 -322 -458 -402 -386
-465 -471 -442 -587 33 -166 173 -152 606 59 264 128 355 138 243 26 -133
-131 -256 -214 -567 -380 -257 -137 -299 -164 -470 -297 -234 -183 -508 -464
-646 -663 -385 -555 -442 -855 -181 -958 72 -29 679 -19 867 14 586 103 1213
469 1575 921 41 51 80 98 85 103 24 24 120 158 120 168 0 6 29 59 65 117 73
119 107 189 206 425 37 91 69 199 69 237 0 18 8 49 19 68 93 175 95 920 3
1265 -39 142 -89 311 -102 340 -138 309 -412 760 -462 760 -82 0 -141 -96 -86
-142 33 -27 180 -234 221 -312 13 -25 37 -70 54 -100 56 -103 133 -283 133
-311 0 -15 7 -36 17 -46 17 -19 60 -172 104 -368 33 -146 32 -780 -1 -922
-210 -899 -741 -1552 -1540 -1894 -149 -64 -173 -71 -496 -155 -199 -52 -725
-53 -782 -2 -61 55 -57 203 9 333 51 102 186 321 208 339 7 6 43 51 81 100
248 325 614 629 990 822 109 57 227 124 261 150 35 27 69 48 77 48 7 0 38 23
68 50 29 28 64 50 77 50 13 0 27 7 30 15 4 8 44 44 89 80 132 103 170 289 73
362 -86 64 -370 -20 -727 -216 -48 -26 -87 6 -62 52 11 21 141 155 287 298
443 430 516 539 452 674 -94 201 -371 109 -795 -265 -236 -208 -298 -250 -325
-223 -27 27 -3 76 223 453 342 571 381 707 235 819 -135 103 -282 49 -443
-162 -55 -72 -109 -141 -120 -155 -11 -13 -31 -41 -44 -63 -154 -256 -205
-337 -281 -444 -87 -123 -145 -159 -145 -90 0 43 57 489 83 655 56 353 40 465
-80 535 -156 92 -323 -33 -409 -305 -48 -152 -122 -441 -155 -600 -65 -321
-198 -651 -334 -830 -174 -228 -298 -167 -508 250 -315 626 -899 527 -611
-104 36 -80 92 -227 123 -326 32 -99 64 -198 71 -220 8 -22 30 -89 50 -150 19
-60 89 -222 155 -360 147 -309 159 -423 65 -597 -86 -157 -184 -197 -303 -124
-105 64 -394 503 -467 711 -8 22 -29 74 -47 116 -18 41 -33 93 -33 115 0 22
-8 55 -18 74 -83 156 -115 835 -53 1115 80 360 194 651 348 884 29 44 79 120
110 168 455 695 1539 1156 2418 1029 l115 -17 0 58 c-1 107 -9 110 -362 118
-180 3 -386 -1 -458 -10z"/>
</g>
</svg>
